<svg width="40" height="40" viewBox="0 0 40 40" fill="none" xmlns="http://www.w3.org/2000/svg">
      <path d="M19.9999 0C10.7949 0 3.33325 7.1632 3.33325 16C3.33325 20.4168 5.19742 24.416 8.21242 27.3112C11.2283 30.208 18.3333 34.4 18.7499 38.8C18.8124 39.4597 19.3099 40 19.9999 40C20.6899 40 21.1874 39.4597 21.2499 38.8C21.6666 34.4 28.7716 30.208 31.7874 27.3112C34.8024 24.416 36.6666 20.4168 36.6666 16C36.6666 7.1632 29.2049 0 19.9999 0Z" fill="#ff7700"></path>
      <path d="M18.3334 22.4999V18.3333H21.6667V22.4999C21.6667 22.9583 22.0417 23.3333 22.5001 23.3333H25.0001C25.4584 23.3333 25.8334 22.9583 25.8334 22.4999V16.6666H27.2501C27.6334 16.6666 27.8167 16.1916 27.5251 15.9416L20.5584 9.6666C20.2417 9.38327 19.7584 9.38327 19.4417 9.6666L12.4751 15.9416C12.1917 16.1916 12.3667 16.6666 12.7501 16.6666H14.1667V22.4999C14.1667 22.9583 14.5417 23.3333 15.0001 23.3333H17.5001C17.9584 23.3333 18.3334 22.9583 18.3334 22.4999Z" fill="white"></path>
    </svg>